<?xml version="1.0" encoding="iso-8859-1"?>
<!-- Generator: Adobe Illustrator 19.0.0, SVG Export Plug-In . SVG Version: 6.00 Build 0)  -->
<svg version="1.1" id="Capa_1" xmlns="http://www.w3.org/2000/svg" xmlns:xlink="http://www.w3.org/1999/xlink" x="0px" y="0px"
	 viewBox="0 0 59 59" width="59.807px" height="40px" style="enable-background:new 0 0 59 59;" xml:space="preserve" fill="#fff">
<g>
	<path fill="#ec5242" d="M48.535,24.319c0.082,0.35-0.091,0.71-0.416,0.865l-4.619,2.2c-9.079,4.764-18.588,4.771-28,0
		l-4.619-2.2c-0.325-0.155-0.498-0.515-0.416-0.865L15.5,2.775c0.192-1.152,0.941-2.056,1.911-2.505
		c0.997-0.461,2.174-0.304,3.114,0.265l3.019,1.825c3.662,2.214,8.25,2.214,11.913,0l3.019-1.825
		c0.94-0.568,2.117-0.726,3.114-0.265c0.97,0.449,1.719,1.353,1.911,2.505L48.535,24.319z"/>
	<path d="M41.589,0.27c-0.997-0.461-2.174-0.304-3.114,0.265l-3.019,1.825c-3.662,2.214-8.25,2.214-11.913,0
		l-3.019-1.825c-0.94-0.568-2.117-0.726-3.114-0.265c-0.97,0.449-1.719,1.353-1.911,2.505L11.797,18.62l3.703,1.763
		c9.412,4.771,18.921,4.764,28,0l3.703-1.763L43.5,2.775C43.308,1.623,42.559,0.719,41.589,0.27z"/>
	<path  d="M48.015,22.091l0.521,2.229c0.082,0.35-0.091,0.71-0.416,0.865l-4.619,2.2
		c-9.079,4.764-18.588,4.771-28,0l-4.619-2.2c-0.325-0.155-0.498-0.515-0.416-0.865l0.521-2.229C4.58,19.962,0.5,18.697,0.5,23.959
		c0,9.389,12.984,17,29,17s29-7.611,29-17C58.5,18.697,54.42,19.962,48.015,22.091z"/>
	<g>
		<path fill="#ec5242" d="M29.5,57c-7.975,0-14.239-6.941-16.757-18.569c-0.117-0.54,0.226-1.072,0.766-1.189
			c0.538-0.113,1.072,0.226,1.189,0.766C17.002,48.648,22.535,55,29.5,55s12.498-6.352,14.802-16.992
			c0.117-0.54,0.651-0.879,1.189-0.766c0.54,0.117,0.883,0.649,0.766,1.189C43.739,50.059,37.475,57,29.5,57z"/>
	</g>
	<path  d="M26.5,59c-0.256,0-0.512-0.098-0.707-0.293c-0.391-0.391-0.391-1.023,0-1.414l4-4
		c0.391-0.391,1.023-0.391,1.414,0s0.391,1.023,0,1.414l-4,4C27.012,58.902,26.756,59,26.5,59z"/>
	<path  d="M32.5,59c-0.256,0-0.512-0.098-0.707-0.293l-4-4c-0.391-0.391-0.391-1.023,0-1.414
		s1.023-0.391,1.414,0l4,4c0.391,0.391,0.391,1.023,0,1.414C33.012,58.902,32.756,59,32.5,59z"/>
</g>
<g>
</g>
<g>
</g>
<g>
</g>
<g>
</g>
<g>
</g>
<g>
</g>
<g>
</g>
<g>
</g>
<g>
</g>
<g>
</g>
<g>
</g>
<g>
</g>
<g>
</g>
<g>
</g>
<g>
</g>
</svg>
