<?xml version="1.0" encoding="iso-8859-1"?>
<!-- Generator: Adobe Illustrator 16.0.0, SVG Export Plug-In . SVG Version: 6.00 Build 0)  -->
<!DOCTYPE svg PUBLIC "-//W3C//DTD SVG 1.1//EN" "http://www.w3.org/Graphics/SVG/1.1/DTD/svg11.dtd">
<svg version="1.1" id="Capa_1" xmlns="http://www.w3.org/2000/svg" xmlns:xlink="http://www.w3.org/1999/xlink" x="0px" y="0px"
	 width="59.807px" height="40px" viewBox="0 0 59.807 59.807" style="enable-background:new 0 0 59.807 59.807;"
	 xml:space="preserve" fill="#fff">
<g>
	<g>
		<path d="M52.851,18.505c-1.103,7.352-11.396,8.822-11.396,6.433c0-2.39,0.735-16.176-3.125-17.278
			c-3.861-1.103-2.39-6.801-4.411-7.352c-1.522-0.416-3.254-0.314-4.015-0.24c-0.761-0.075-2.492-0.177-4.015,0.239
			c-2.022,0.551-0.551,6.25-4.411,7.352c-3.861,1.104-3.125,14.889-3.125,17.278c0,2.389-10.294,0.919-11.397-6.433
			C5.853,11.152-3.338,28.981,5.669,36.15c8.159,6.494,21.75,6.502,24.234,6.445c2.484,0.057,16.076,0.049,24.235-6.445
			C63.145,28.982,53.955,11.153,52.851,18.505z M21.844,22.596c-0.762,0-1.378-0.618-1.378-1.378s0.618-1.378,1.378-1.378
			c0.761,0,1.378,0.618,1.378,1.378S22.605,22.596,21.844,22.596z M26.807,23.698c-0.761,0-1.378-0.618-1.378-1.378
			c0-0.761,0.618-1.378,1.378-1.378c0.761,0,1.378,0.618,1.378,1.378C28.186,23.082,27.569,23.698,26.807,23.698z M33.424,23.698
			c-0.761,0-1.378-0.618-1.378-1.378c0-0.761,0.618-1.378,1.378-1.378c0.762,0,1.378,0.618,1.378,1.378
			C34.803,23.082,34.186,23.698,33.424,23.698z M38.388,22.596c-0.762,0-1.378-0.618-1.378-1.378s0.617-1.378,1.378-1.378
			s1.377,0.618,1.377,1.378S39.149,22.596,38.388,22.596z"/>
		<path fill="#ec5242" d="M34.084,47.818c0,0-2.487-0.301-3.181,3.18c-1.33,6.679,2.299,4.654,2.299,4.654c3.65-2.312,7.634,1.038,11.324,3.435
			c3.691,2.396,1.12-1.943,1.12-1.943C39.707,47.788,34.084,47.818,34.084,47.818z"/>
		<path fill="#ec5242" d="M25.723,47.818c0,0-5.623-0.03-11.564,9.325c0,0-2.571,4.338,1.12,1.943c3.69-2.396,7.675-5.746,11.325-3.435
			c0,0,3.629,2.024,2.299-4.654C28.21,47.517,25.723,47.818,25.723,47.818z"/>
	</g>
</g>
<g>
</g>
<g>
</g>
<g>
</g>
<g>
</g>
<g>
</g>
<g>
</g>
<g>
</g>
<g>
</g>
<g>
</g>
<g>
</g>
<g>
</g>
<g>
</g>
<g>
</g>
<g>
</g>
<g>
</g>
</svg>
