<?xml version="1.0" encoding="utf-8"?>
<!-- Uploaded to SVGRepo https://www.svgrepo.com -->
<svg version="1.1" id="Police_Truck" xmlns="http://www.w3.org/2000/svg" xmlns:xlink="http://www.w3.org/1999/xlink" x="0px"
	 y="0px" viewBox="0 0 128 128" style="enable-background:new 0 0 128 128;" xml:space="preserve" fill="#fff" width="59.807px" height="40px">
<circle fill="#ec5242" id="_x34__25_" cx="34.5" cy="89.3" r="10"/>
<circle fill="#ec5242" id="_x34__24_" cx="100.1" cy="89.3" r="10"/>
<path id="_x33__14_" d="M60.7,39.3h-5c-2.8,0-5,2.2-5,5v18.3h-1.3H10.6V76c-2.8,0-5,2.2-5,5v3.4c0,2.8,2.2,5,5,5h10.5c0,0,0,0,0-0.1
	c0-7.4,6-13.3,13.3-13.3s13.3,6,13.3,13.3c0,0,0,0,0,0.1h1.6h37.2c0,0,0,0,0-0.1c0-7.4,6-13.3,13.3-13.3s13.3,6,13.3,13.3
	c0,0,0,0,0,0.1h4c2.8,0,5-2.2,5-5V81c0.1-2.8-2.1-5-4.9-5v-8.3c0-2.8-2.2-5-5-5H90.7l-7.4-16.8c-1.5-3.6-5.8-6.5-9.5-6.5h-3.2
	L60.7,39.3z M57.4,62.6V45.9h16.5c0.8,0,2.8,1.2,3.4,2.5l6.2,14.1h-26V62.6z"/>
</svg>
