<?xml version="1.0" encoding="iso-8859-1"?>
<!-- Generator: Adobe Illustrator 19.0.0, SVG Export Plug-In . SVG Version: 6.00 Build 0)  -->
<svg version="1.1" id="Capa_1" xmlns="http://www.w3.org/2000/svg" xmlns:xlink="http://www.w3.org/1999/xlink" x="0px" y="0px"
	 viewBox="0 0 58 58" style="enable-background:new 0 0 58 58;" xml:space="preserve" width="59.807px" height="40px">
<g>
	<path style="fill:#ECF0F1;" d="M52,37c0-1.657-4.029-3-9-3s-9,1.343-9,3c0,0.39,0.221,1.102,0.221,1.102S37,54.977,37,55
		c0,1.105,2.686,2,6,2s6-0.895,6-2c0-0.023,2.779-16.898,2.779-16.898S52,37.39,52,37z"/>
	<path style="fill:#ec5242;" d="M50.994,44.474C49.189,43.551,46.2,43,43,43s-6.189,0.551-7.994,1.474
		c-0.389,0.199-0.581,0.616-0.525,1.026c-0.057,0.41,0.136,0.827,0.525,1.026C36.811,47.449,39.8,48,43,48s6.189-0.551,7.994-1.474
		c0.389-0.199,0.581-0.616,0.525-1.026C51.576,45.09,51.384,44.673,50.994,44.474z"/>
	<g>
		<path style="fill:#ec5242;" d="M43,48c-2.844,0-5.517-0.437-7.344-1.182C36.335,50.946,37,54.989,37,55c0,1.105,2.686,2,6,2
			s6-0.895,6-2c0-0.011,0.665-4.054,1.344-8.182C48.517,47.563,45.844,48,43,48z"/>
	</g>
	<path style="fill:#ec5242;" d="M20.446,11H9.554C8.144,11,7,9.856,7,8.446V7.554C7,6.144,8.144,5,9.554,5h10.891
		C21.856,5,23,6.144,23,7.554v0.891C23,9.856,21.856,11,20.446,11z"/>
	<path style="fill:#fff;" d="M22.477,22.401C20.884,21.457,20,19.654,20,17.802V12v-1H10v1l0,5.802
		c0,1.852-0.884,3.655-2.477,4.599C5.959,23.329,5,25.013,5,26.831v27.367C5,55.745,6.255,57,7.802,57h14.396
		C23.745,57,25,55.745,25,54.198V26.831C25,25.013,24.041,23.329,22.477,22.401z"/>
	<path style="fill:#ec5242;" d="M20,5V1.233C20,0.552,19.448,0,18.767,0h-7.534C10.552,0,10,0.552,10,1.233V5H20z"/>
	<path style="fill:#FFBE48;" d="M20,28.811c-0.256,0-0.512-0.098-0.707-0.293c-2.473-2.473-6.498-2.473-8.971,0
		c-0.391,0.391-1.023,0.391-1.414,0s-0.391-1.024,0-1.414c3.252-3.253,8.547-3.253,11.799,0c0.391,0.39,0.391,1.023,0,1.414
		C20.512,28.713,20.256,28.811,20,28.811z"/>
	<path style="fill:#FFBE48;" d="M17,22c-0.553,0-1-0.448-1-1v-7c0-0.552,0.447-1,1-1s1,0.448,1,1v7C18,21.552,17.553,22,17,22z"/>
	<polygon style="fill:#483340;" points="21,52 15,52 13,51 11,52 9,52 9,48 10,46 9,44 9,34 11,34 13,35 15,34 21,34 21,38 20,40 
		21,42 21,47 20,49 21,51 	"/>
	<path style="fill:#fff;" d="M18,39h-6c-0.553,0-1-0.448-1-1s0.447-1,1-1h6c0.553,0,1,0.448,1,1S18.553,39,18,39z"/>
	<path style="fill:#fff;" d="M18,42h-6c-0.553,0-1-0.448-1-1s0.447-1,1-1h6c0.553,0,1,0.448,1,1S18.553,42,18,42z"/>
	<path style="fill:#fff;" d="M17,48h-4c-0.553,0-1-0.448-1-1s0.447-1,1-1h4c0.553,0,1,0.448,1,1S17.553,48,17,48z"/>
	<path style="fill:#E6E7E8;" d="M43,41c-4.816,0-10-1.252-10-4s5.184-4,10-4s10,1.252,10,4S47.816,41,43,41z M43,35
		c-5.249,0-8,1.486-8,2s2.751,2,8,2s8-1.486,8-2S48.249,35,43,35z"/>
	<path style="fill:#E6E7E8;" d="M43,58c-3.431,0-6.893-0.899-6.997-2.906c-0.141-0.867-1.854-11.279-2.769-16.829
		c-0.09-0.545,0.279-1.06,0.824-1.149c0.548-0.086,1.06,0.28,1.148,0.824c2.377,14.429,2.73,16.579,2.784,16.964
		C38.257,55.246,39.978,56,43,56s4.743-0.754,5.009-1.096c0.054-0.385,0.407-2.535,2.784-16.964c0.089-0.544,0.6-0.915,1.148-0.824
		c0.545,0.09,0.914,0.604,0.824,1.149c-0.914,5.55-2.628,15.962-2.769,16.829C49.893,57.101,46.431,58,43,58z"/>
	<path style="fill:#FFFFFF;" d="M43,55c-0.908,0-1.767-0.074-2.551-0.219c-0.902-0.167-1.609-0.891-1.758-1.799
		c-0.089-0.545,0.281-1.059,0.826-1.148c0.548-0.087,1.06,0.28,1.148,0.826c0.013,0.081,0.069,0.141,0.148,0.155
		C41.271,52.899,42.021,53,43,53s1.729-0.101,2.186-0.186c0.079-0.014,0.136-0.074,0.148-0.155c0.089-0.545,0.6-0.917,1.148-0.826
		c0.545,0.089,0.915,0.603,0.826,1.148c-0.148,0.909-0.855,1.632-1.758,1.799C44.767,54.926,43.908,55,43,55z"/>
</g>
<g>
</g>
<g>
</g>
<g>
</g>
<g>
</g>
<g>
</g>
<g>
</g>
<g>
</g>
<g>
</g>
<g>
</g>
<g>
</g>
<g>
</g>
<g>
</g>
<g>
</g>
<g>
</g>
<g>
</g>
</svg>
